:SAMPLES-PER-SECOND 30
:FRAME-RANGE 1-2775
:FULLY-SPECIFIED
:DEGREES
174
root  11.7721 38.1202 -67.3458 -175.185 -75.0044 177.979
RightUpLeg  -25.6126 12.3897 -15.261
RightLeg  12.4529 8.23457 0.539623
RightFoot  -3.72975 -1.30464 19.0628
RightToes  1.218e-010 1.26228e-014 -6.01869e-014
Spine  -6.05608 1.15273 1.64612
Spine1  7.3415 2.05171 -4.0095
HEad  -7.17392 55.9941 -21.0695
LeftShoulder1  1.09903 -0.517494 -22.6967
LeftArm  3.09224 1.35883 -52.6219
LeftForeArm  33.8503 -6.65265 -11.9951
LeftHand  -0.0730644 4.24385 5.56875
RightShoulder  1.53159 1.50554 25.7682
RightArm  -28.0884 -9.09055 36.4101
RightForeArm  64.7971 0.185676 2.98805
RightHand  0.0662698 -5.98458 -15.9629
LeftUpLeg  5.84287 -12.5693 -4.8144
LeftLeg  22.4003 -3.74355 -1.24336
LeftFoot  -23.6677 0.564157 3.90467
LeftToes  5.08156e-010 -6.90346e-011 -6.33378e-011
175
root  10.8837 37.9997 -68.1815 -176.946 -76.8562 179.603
RightUpLeg  -26.7326 13.6395 -14.8955
RightLeg  18.3587 5.56287 1.85618
RightFoot  -3.29939 -1.38617 19.2282
RightToes  1.218e-010 1.26228e-014 -6.01869e-014
Spine  -4.97905 1.23655 2.86801
Spine1  6.47051 2.11865 -4.35154
HEad  -7.72308 56.3443 -23.1122
LeftShoulder1  1.12142 -0.408153 -24.2248
LeftArm  -1.50384 3.20357 -50.0315
LeftForeArm  35.5431 -2.93752 -12.1733
LeftHand  -0.0427081 4.96514 5.90287
RightShoulder  1.53471 1.53285 25.6484
RightArm  -27.4758 -7.8828 36.4643
RightForeArm  63.5146 0.730562 3.41405
RightHand  0.0790422 -6.0521 -16.4905
LeftUpLeg  5.80058 -13.2146 -3.30911
LeftLeg  26.2245 -4.53507 -2.07485
LeftFoot  -23.0575 0.278523 1.36467
LeftToes  5.08156e-010 -6.90346e-011 -6.33378e-011
176
root  10.0666 37.9707 -68.915 179.428 -78.4792 -176.667
RightUpLeg  -26.5426 10.7455 -12.3556
RightLeg  22.2752 6.97622 2.92556
RightFoot  -4.77305 -1.03337 17.3153
RightToes  1.218e-010 1.26228e-014 -6.01869e-014
Spine  -4.69749 1.44851 4.13707
Spine1  6.85665 2.20799 -3.92839
HEad  -8.30513 56.431 -24.975
LeftShoulder1  1.16173 -0.458473 -24.9246
LeftArm  -5.11015 5.11858 -49.1171
LeftForeArm  35.0232 0.988529 -11.4332
LeftHand  -0.0473611 4.75878 4.8069
RightShoulder  1.64613 1.93376 25.349
RightArm  -27.2237 -5.48357 36.9155
RightForeArm  62.6528 0.323401 3.49497
RightHand  0.0828566 -6.03645 -17.3793
LeftUpLeg  3.83204 -11.7442 -0.87458
LeftLeg  32.2855 -5.4066 -3.30864
LeftFoot  -20.2292 -0.0518668 -2.22826
LeftToes  5.08156e-010 -6.90346e-011 -6.33378e-011
177
root  9.36791 38.1318 -69.5348 174.155 -80.7063 -170.986
RightUpLeg  -25.3185 9.67549 -10.4607
RightLeg  23.1512 5.79388 2.49871
RightFoot  -5.44696 -0.846341 15.6243
RightToes  1.218e-010 1.26228e-014 -6.01869e-014
Spine  -4.63519 1.54304 5.43093
Spine1  7.41716 2.11817 -2.89238
HEad  -8.20001 56.1477 -25.4954
LeftShoulder1  1.1639 -0.56244 -24.1141
LeftArm  -7.61725 7.16146 -49.7586
LeftForeArm  33.1561 4.74752 -10.6476
LeftHand  -0.0246132 5.38078 4.75074
RightShoulder  1.7296 2.20119 25.3484
RightArm  -26.8256 -2.40261 37.5038
RightForeArm  62.8036 -0.2363 3.57756
RightHand  0.114889 -6.23125 -17.7534
LeftUpLeg  0.0151893 -9.60433 1.77643
LeftLeg  39.318 -4.73805 -3.76644
LeftFoot  -14.1629 -0.0617665 -5.94745
LeftToes  5.08156e-010 -6.90346e-011 -6.33378e-011
178
root  8.73245 38.3331 -70.0842 164.473 -82.7105 -160.997
RightUpLeg  -23.5634 9.33784 -8.57354
RightLeg  22.7751 3.95443 1.60531
RightFoot  -6.09389 -0.712196 14.5589
RightToes  1.218e-010 1.26228e-014 -6.01869e-014
Spine  -3.97666 1.83726 7.19248
Spine1  7.30529 2.37406 -2.27528
HEad  -7.00501 55.5188 -24.8207
LeftShoulder1  1.10183 -0.461634 -23.2256
LeftArm  -8.67216 8.91752 -50.4897
LeftForeArm  31.8536 7.47995 -10.3754
LeftHand  -0.0132107 5.76325 4.18918
RightShoulder  1.80881 2.45957 25.3216
RightArm  -26.2347 0.317601 38.1469
RightForeArm  62.5937 0.15204 3.91703
RightHand  0.144922 -6.42147 -17.8722
LeftUpLeg  -4.72338 -7.56998 3.7838
LeftLeg  46.829 -2.59527 -2.53548
LeftFoot  -7.01764 0.267654 -5.97329
LeftToes  5.08156e-010 -6.90346e-011 -6.33378e-011
179
root  8.09338 38.482 -70.5542 151.14 -84.3559 -147.548
RightUpLeg  -21.9063 7.95273 -6.91072
RightLeg  22.7872 3.35798 1.3289
RightFoot  -6.97355 -0.546526 13.0295
RightToes  1.218e-010 1.26228e-014 -6.01869e-014
Spine  -3.32275 2.25145 8.84814
Spine1  7.27612 2.8491 -2.05753
HEad  -5.63858 54.5479 -24.1372
LeftShoulder1  1.02493 -0.218116 -23.0542
LeftArm  -8.15661 10.5056 -50.4593
LeftForeArm  31.329 7.56701 -10.8807
LeftHand  -0.0156355 5.79727 3.4384
RightShoulder  1.94143 2.88568 25.3163
RightArm  -24.6725 3.39316 38.0802
RightForeArm  60.6966 0.790372 4.80164
RightHand  0.110075 -6.1862 -18.0007
LeftUpLeg  -9.16774 -5.65797 4.48266
LeftLeg  53.1942 1.03295 1.96739
LeftFoot  -3.54149 0.187409 -2.43693
LeftToes  5.08156e-010 -6.90346e-011 -6.33378e-011
